<svg xmlns="http://www.w3.org/2000/svg" height="1296" width="1546" version="1.1" xmlns:xlink="http://www.w3.org/1999/xlink" xmlns:svgjs="http://svgjs.com/svgjs"><rect fill="#e9ecf3" width="1546" height="1296"></rect><g><path d="M1378.95 1005.62L1328.85 999.83 1336.15 956.53C1336.35 955.53 1335.75 954.63 1334.85 954.33 1333.95 954.03 1332.95 954.43 1332.45 955.23L1312.45 990.83 1279.15 954.73C1278.45 954.03 1277.35 953.83 1276.55 954.43 1275.75 955.03 1275.45 956.03 1275.85 956.93L1296.75 1000.72 1261.25 1008.72C1260.35 1008.92 1259.65 1009.72 1259.65 1010.72 1259.65 1011.72 1260.35 1012.52 1261.25 1012.62L1297.35 1019.12 1282.85 1073.92C1282.55 1074.92 1283.05 1075.92 1284.05 1076.32 1284.25 1076.42 1284.55 1076.52 1284.85 1076.52 1285.55 1076.52 1286.25 1076.12 1286.55 1075.52L1313.85 1028.42 1338.35 1055.02C1338.95 1055.72 1340.05 1055.92 1340.85 1055.42 1341.65 1054.92 1342.05 1053.92 1341.65 1053.02L1329.35 1018.62 1378.95 1009.52C1379.95 1009.32 1380.65 1008.52 1380.55 1007.52 1380.45 1006.52 1379.95 1005.72 1378.95 1005.62Z" fill="#3290ff" opacity="1" stroke-width="4" stroke="none"></path></g><g><path d="M1121.5 230.2C1129.4 230.2 1135.8 223.8 1135.8 215.9 1135.8 208 1129.4 201.6 1121.5 201.6 1113.6 201.6 1107.2 208 1107.2 215.9 1107.2 223.8 1113.6 230.2 1121.5 230.2Z" fill="#ffffff" opacity="1" stroke-width="4" stroke="none"></path></g><g><path d="M1173.35 800.8C1203.05 822.3 1270.05 797 1311.45 772.2 1357.45 744.6 1359.55 714.9 1341.15 714.9 1315.55 714.9 1252.15 793.7 1288.95 811 1319.35 825.4 1374.85 799.8 1389.15 816.1 1403.45 832.4 1409.65 868.3 1449.45 886.7" stroke="#ffffff" stroke-width="4" stroke-linecap="round" stroke-linejoin="round" opacity="1" fill="none"></path></g><g><path d="M303.3 1036.3C312.36 1036.3 319.7 1028.96 319.7 1019.9 319.7 1010.84 312.36 1003.5 303.3 1003.5 294.24 1003.5 286.9 1010.84 286.9 1019.9 286.9 1028.96 294.24 1036.3 303.3 1036.3Z" fill="#ffa0dc" opacity="1" stroke-width="4" stroke="none"></path></g><g><path d="M1150.7 1118.1C1160.58 1118.1 1168.6 1110.09 1168.6 1100.2 1168.6 1090.31 1160.58 1082.3 1150.7 1082.3 1140.81 1082.3 1132.8 1090.31 1132.8 1100.2 1132.8 1110.09 1140.81 1118.1 1150.7 1118.1Z" fill="#61e3ff" opacity="1" stroke-width="4" stroke="none"></path></g><g><path d="M162.26 513.5C172.7 513.5 181.16 505.04 181.16 494.6 181.16 484.16 172.7 475.7 162.26 475.7 151.82 475.7 143.36 484.16 143.36 494.6 143.36 505.04 151.82 513.5 162.26 513.5Z" fill="#61e3ff" opacity="1" stroke-width="4" stroke="none"></path></g><g><path d="M248.1 642.93C259.07 635.02 261.56 619.71 253.65 608.74 245.73 597.76 230.42 595.27 219.45 603.19 208.47 611.1 205.99 626.41 213.9 637.39 221.81 648.36 237.12 650.85 248.1 642.93Z" fill="#d7e2ef" opacity="1" stroke-width="4" stroke="none"></path></g><g><path d="M105.05 854.4C144.55 819.6 217.75 772.6 279.05 812.5 279.05 812.5 218.75 733.7 249.45 696.9 289.55 648.7 407.55 779.7 389.85 802.2 371.65 825.2 330.95 722.3 352.25 665.1 369.05 620.1 449.25 687.6 462.15 727.5" stroke="#ffffff" stroke-width="4" stroke-linecap="round" stroke-linejoin="round" opacity="1" fill="none"></path></g><g><path d="M1182.78 322.8H1098.88C1098.88 322.8 1089.18 372.4 1118.38 398.7H1202.28C1173.08 372.4 1182.78 322.8 1182.78 322.8Z" fill="#d7e2ef" opacity="1" stroke-width="4" stroke="none"></path><path d="M1065.18 279.9H981.28C981.28 279.9 971.58 329.5 1000.78 355.8H1084.68C1055.38 329.5 1065.18 279.9 1065.18 279.9Z" fill="#30a9ff" opacity="1" stroke-width="4" stroke="none"></path></g><g><path d="M858.25 161.3H944.75C964.65 161.3 980.75 177.4 980.75 197.3V198.9C980.75 218.8 964.65 234.9 944.75 234.9H858.25C838.35 234.9 822.25 218.8 822.25 198.9V197.3C822.25 177.4 838.35 161.3 858.25 161.3Z" fill="#3290ff" opacity="1" stroke-width="4" stroke="none"></path><path d="M874.05 202.9C879.96 202.9 884.75 198.11 884.75 192.2 884.75 186.29 879.96 181.5 874.05 181.5 868.14 181.5 863.35 186.29 863.35 192.2 863.35 198.11 868.14 202.9 874.05 202.9Z" stroke="#ffffff" stroke-width="4" stroke-linecap="round" stroke-linejoin="round" opacity="1" fill="none"></path><path d="M882.65 198.7L869.75 214.8" stroke="#ffffff" stroke-width="4" stroke-linecap="round" stroke-linejoin="round" opacity="1" fill="none"></path><path d="M907.35 202.9C913.26 202.9 918.05 198.11 918.05 192.2 918.05 186.29 913.26 181.5 907.35 181.5 901.44 181.5 896.65 186.29 896.65 192.2 896.65 198.11 901.44 202.9 907.35 202.9Z" stroke="#ffffff" stroke-width="4" stroke-linecap="round" stroke-linejoin="round" opacity="1" fill="none"></path><path d="M915.95 198.7L903.05 214.8" stroke="#ffffff" stroke-width="4" stroke-linecap="round" stroke-linejoin="round" opacity="1" fill="none"></path><path d="M936.35 190.6V205.7" stroke="#ffffff" stroke-width="4" stroke-linecap="round" stroke-linejoin="round" opacity="1" fill="none"></path><path d="M943.85 198.2H928.85" stroke="#ffffff" stroke-width="4" stroke-linecap="round" stroke-linejoin="round" opacity="1" fill="none"></path></g><g><path d="M1063.8 527H925.8C918.2 527 912 520.8 912 513.2V416.1C912 408.5 918.2 402.3 925.8 402.3H963.1C968 402.3 972.5 404.9 975 409.1L979.3 416.4C981.8 420.6 986.3 423.2 991.2 423.2H1063.9C1071.5 423.2 1077.7 429.4 1077.7 437V513.2C1077.7 520.8 1071.5 527 1063.8 527 1063.9 527 1063.9 527 1063.8 527Z" fill="#61e3ff" opacity="1" stroke-width="4" stroke="none"></path></g><g><path d="M488.7 757.1H725.7C742.7 757.1 756.6 770.9 756.6 788V1025C756.6 1042 742.8 1055.9 725.7 1055.9H488.7C471.7 1055.9 457.8 1042.1 457.8 1025V788C457.8 770.9 471.6 757.1 488.7 757.1Z" fill="#61e3ff" opacity="1" stroke-width="4" stroke="none"></path><path d="M496.7 998.5H717.6" stroke="#ffffff" stroke-width="4" stroke-linecap="round" stroke-linejoin="round" opacity="1" fill="none"></path><path d="M496.7 998.5V822.6" stroke="#ffffff" stroke-width="4" stroke-linecap="round" stroke-linejoin="round" opacity="1" fill="none"></path><path d="M486.5 901.3C525.4 901.3 522.3 954.5 549.9 954.5 590.8 954.5 598 841 644 841 690 841 683.9 905.4 715.6 905.4" stroke="#ffa0dc" stroke-width="4" stroke-linecap="round" stroke-linejoin="round" opacity="1" fill="none"></path><path d="M606.1 889.1C615.16 889.1 622.5 881.76 622.5 872.7 622.5 863.64 615.16 856.3 606.1 856.3 597.04 856.3 589.7 863.64 589.7 872.7 589.7 881.76 597.04 889.1 606.1 889.1Z" fill="#ffffff" opacity="1" stroke-width="4" stroke="none"></path><path d="M537.6 997.5V988.3" stroke="#ffffff" stroke-width="4" stroke-linecap="round" stroke-linejoin="round" opacity="1" fill="none"></path><path d="M578.5 997.5V988.3" stroke="#ffffff" stroke-width="4" stroke-linecap="round" stroke-linejoin="round" opacity="1" fill="none"></path><path d="M619.4 997.5V988.3" stroke="#ffffff" stroke-width="4" stroke-linecap="round" stroke-linejoin="round" opacity="1" fill="none"></path><path d="M660.3 997.5V988.3" stroke="#ffffff" stroke-width="4" stroke-linecap="round" stroke-linejoin="round" opacity="1" fill="none"></path><path d="M701.3 997.5V988.3" stroke="#ffffff" stroke-width="4" stroke-linecap="round" stroke-linejoin="round" opacity="1" fill="none"></path></g><g><path d="M330.72 602.43C321.84 602.41 313.33 598.88 307.05 592.6 300.77 586.32 297.23 577.81 297.23 568.93V251.47C297.23 242.59 300.77 234.08 307.05 227.8 313.33 221.52 321.84 217.98 330.72 217.97H742.6C751.48 217.98 759.99 221.52 766.27 227.8 772.55 234.08 776.08 242.59 776.09 251.47V568.93C776.08 577.81 772.55 586.32 766.27 592.6 759.99 598.88 751.48 602.41 742.6 602.43H330.72Z" fill="#ffffff" opacity="1" stroke-width="4" stroke="none"></path><path d="M297.25 289.93H777.57" stroke="#ffffff" stroke-width="4" opacity="1" fill="none"></path><path d="M332.47 265.95C339.5 265.95 345.21 260.25 345.21 253.22 345.21 246.18 339.5 240.48 332.47 240.48 325.43 240.48 319.73 246.18 319.73 253.22 319.73 260.25 325.43 265.95 332.47 265.95Z" fill="#ffffff" opacity="1" stroke-width="4" stroke="none"></path><path d="M371.07 265.95C378.11 265.95 383.81 260.25 383.81 253.22 383.81 246.18 378.11 240.48 371.07 240.48 364.04 240.48 358.33 246.18 358.33 253.22 358.33 260.25 364.04 265.95 371.07 265.95Z" fill="#ffffff" opacity="1" stroke-width="4" stroke="none"></path><path d="M409.67 265.95C416.71 265.95 422.41 260.25 422.41 253.22 422.41 246.18 416.71 240.48 409.67 240.48 402.64 240.48 396.93 246.18 396.93 253.22 396.93 260.25 402.64 265.95 409.67 265.95Z" fill="#ffffff" opacity="1" stroke-width="4" stroke="none"></path></g><g><path d="M430.14 387.05H378.33V548.3H430.14V387.05Z" fill="#61e3ff" opacity="1" stroke-width="4" stroke="none"></path><path d="M617.56 363.47H565.75V548.3H617.56V363.47Z" fill="#d7e2ef" opacity="1" stroke-width="4" stroke="none"></path><path d="M523.78 329.41H471.97V548.3H523.78V329.41Z" fill="#ffa0dc" opacity="1" stroke-width="4" stroke="none"></path><path d="M711.2 455.17H659.39V548.3H711.2V455.17Z" fill="#ffa0dc" opacity="1" stroke-width="4" stroke="none"></path><path d="M352.42 548.3H737.11" stroke="#000000" stroke-width="4" stroke-linecap="round" stroke-linejoin="round" opacity="1" fill="none"></path></g><g><path d="M271.63 448.99C264.21 448.99 221.6 433.8 221.6 393.89V340.09C221.61 340.08 221.62 340.08 221.63 340.08 221.82 340.08 222.88 340.16 224.61 340.16 233.03 340.16 254.46 338.37 271.62 321.71 288.8 338.37 310.24 340.16 318.65 340.16 320.54 340.16 321.63 340.07 321.64 340.07L321.66 393.89C321.66 433.8 279.05 448.99 271.63 448.99Z" fill="#152f42" opacity="0.2" stroke-width="4" stroke="none"></path><path d="M263.09 441.2C255.66 441.2 213.06 426.01 213.06 386.11V332.3C213.07 332.3 213.08 332.3 213.09 332.3 213.27 332.3 214.34 332.38 216.07 332.38 224.48 332.38 245.92 330.58 263.07 313.93 280.26 330.58 301.69 332.38 310.11 332.38 311.99 332.38 313.08 332.28 313.1 332.28L313.12 386.11C313.12 426.01 270.51 441.2 263.09 441.2Z" fill="#30a9ff" opacity="1" stroke-width="4" stroke="none"></path><path d="M263.09 403.66C277.5 403.66 289.19 391.98 289.19 377.56 289.19 363.15 277.5 351.46 263.09 351.46 248.67 351.46 236.99 363.15 236.99 377.56 236.99 391.98 248.67 403.66 263.09 403.66Z" fill="#30a9ff" opacity="1" stroke-width="4" stroke="none"></path><path d="M254.54 376.61L261.5 383.58 271.63 371.55" stroke="#020202" stroke-width="4" stroke-linecap="round" stroke-linejoin="round" opacity="1" fill="none"></path></g><g><path d="M993.5 616.9H1217.6C1229.1 616.9 1238.5 626.3 1238.5 637.8V894.7C1238.5 906.2 1229.1 915.6 1217.6 915.6H993.5C982 915.6 972.6 906.2 972.6 894.7V637.8C972.6 626.2 982 616.9 993.5 616.9Z" fill="#d7e2ef" opacity="1" stroke-width="4" stroke="none"></path><path d="M1020.3 682.9L1029.5 692.1 1044.4 677.3" stroke="#ffffff" stroke-width="4" stroke-linecap="round" stroke-linejoin="round" opacity="1" fill="none"></path><path d="M1038.22 772.62C1042.85 769.41 1044 763.06 1040.8 758.43 1037.59 753.79 1031.24 752.64 1026.61 755.85 1021.97 759.05 1020.82 765.41 1024.02 770.04 1027.23 774.67 1033.59 775.83 1038.22 772.62Z" stroke="#ffffff" stroke-width="4" stroke-linecap="round" stroke-linejoin="round" opacity="1" fill="none"></path><path d="M1038.21 852.02C1042.84 848.81 1044 842.46 1040.79 837.83 1037.59 833.2 1031.23 832.04 1026.6 835.25 1021.97 838.45 1020.81 844.81 1024.02 849.44 1027.23 854.07 1033.58 855.23 1038.21 852.02Z" stroke="#ffffff" stroke-width="4" stroke-linecap="round" stroke-linejoin="round" opacity="1" fill="none"></path><path d="M1073.3 686.6H1166.3" stroke="#ffa0dc" stroke-width="4" stroke-linecap="round" stroke-linejoin="round" opacity="1" fill="none"></path><path d="M1073.3 764.3H1166.3" stroke="#ffa0dc" stroke-width="4" stroke-linecap="round" stroke-linejoin="round" opacity="1" fill="none"></path><path d="M1073.3 843H1166.3" stroke="#ffa0dc" stroke-width="4" stroke-linecap="round" stroke-linejoin="round" opacity="1" fill="none"></path></g><g><path d="M1309.2 868.6C1315.55 868.6 1320.7 863.45 1320.7 857.1 1320.7 850.75 1315.55 845.6 1309.2 845.6 1302.85 845.6 1297.7 850.75 1297.7 857.1 1297.7 863.45 1302.85 868.6 1309.2 868.6Z" fill="#ffa0dc" opacity="1" stroke-width="4" stroke="none"></path></g><g><path d="M1215.07 674.85C1278.39 674.85 1329.73 623.51 1329.73 560.18 1329.73 496.85 1278.39 445.51 1215.07 445.51 1151.74 445.51 1100.4 496.85 1100.4 560.18 1100.4 623.51 1151.74 674.85 1215.07 674.85Z" fill="#ffffff" opacity="1" stroke-width="4" stroke="none"></path><path d="M1215.48 551.15C1230.17 551.15 1242.07 539.25 1242.07 524.56 1242.07 509.88 1230.17 497.97 1215.48 497.97 1200.8 497.97 1188.89 509.88 1188.89 524.56 1188.89 539.25 1200.8 551.15 1215.48 551.15Z" fill="#61e3ff" opacity="1" stroke-width="4" stroke="none"></path><path d="M1215.07 628.18C1234.84 628.18 1253.67 619.57 1266.51 604.57 1264.84 574.82 1242.61 551.21 1215.42 551.21 1187.94 551.21 1165.59 575.24 1164.33 605.47 1177.24 619.93 1195.71 628.18 1215.07 628.18Z" fill="#61e3ff" opacity="1" stroke-width="4" stroke="none"></path></g><g><path d="M1326.57 417.39H1273.82C1254.43 417.39 1238.66 433.16 1238.66 452.56 1238.66 469.82 1251.2 484.49 1268.23 487.25V505.3L1294.01 487.72H1326.57C1345.96 487.72 1361.73 471.95 1361.73 452.56 1361.73 433.08 1345.96 417.39 1326.57 417.39Z" fill="#ffa0dc" opacity="1" stroke-width="4" stroke="none"></path><path d="M1280.45 456.81C1283.1 456.81 1285.26 454.66 1285.26 452 1285.26 449.35 1283.1 447.19 1280.45 447.19 1277.79 447.19 1275.64 449.35 1275.64 452 1275.64 454.66 1277.79 456.81 1280.45 456.81Z" fill="#ffffff" opacity="1" stroke-width="4" stroke="none"></path><path d="M1300.16 456.81C1302.81 456.81 1304.97 454.66 1304.97 452 1304.97 449.35 1302.81 447.19 1300.16 447.19 1297.5 447.19 1295.35 449.35 1295.35 452 1295.35 454.66 1297.5 456.81 1300.16 456.81Z" fill="#ffffff" opacity="1" stroke-width="4" stroke="none"></path><path d="M1319.95 456.81C1322.6 456.81 1324.76 454.66 1324.76 452 1324.76 449.35 1322.6 447.19 1319.95 447.19 1317.29 447.19 1315.14 449.35 1315.14 452 1315.14 454.66 1317.29 456.81 1319.95 456.81Z" fill="#ffffff" opacity="1" stroke-width="4" stroke="none"></path></g><g><path d="M416.24 989.8H508.04C521.11 989.8 531.69 1000.38 531.69 1013.45V1062.71C531.69 1075.78 521.11 1086.36 508.04 1086.36H416.24C403.17 1086.36 392.59 1075.78 392.59 1062.71V1013.45C392.59 1000.38 403.17 989.8 416.24 989.8Z" fill="#ffa0dc" opacity="0.2" stroke-width="4" stroke="none"></path><path d="M408.08 974.99H499.88C512.95 974.99 523.53 985.57 523.53 998.64V1047.9C523.53 1060.97 512.95 1071.55 499.88 1071.55H408.08C395.01 1071.55 384.43 1060.97 384.43 1047.9V998.64C384.43 985.57 395.01 974.99 408.08 974.99Z" fill="#ffa0dc" opacity="1" stroke-width="4" stroke="none"></path><path d="M453.94 1044.95L516.13 981.49H391.76L453.94 1044.95Z" fill="#a8819a" opacity="0.2" stroke-width="4" stroke="none"></path><path d="M453.94 1031.2L516.09 981.54C511.97 977.48 506.23 974.99 499.88 974.99H408.08C401.73 974.99 395.99 977.48 391.84 981.49L453.94 1031.2Z" fill="#ffa0dc" opacity="1" stroke-width="4" stroke="none"></path><path d="M515.82 981.71L453.94 1031.13 391.96 981.61" stroke="#a8819a" stroke-width="4" stroke-linecap="round" stroke-linejoin="round" opacity="1" fill="none"></path><path d="M466.94 1022.14L517.41 1062.56" stroke="#a8819a" stroke-width="4" stroke-linecap="round" stroke-linejoin="round" opacity="1" fill="none"></path><path d="M390.17 1062.33L440.8 1021.91" stroke="#a8819a" stroke-width="4" stroke-linecap="round" stroke-linejoin="round" opacity="1" fill="none"></path></g><g><path d="M478.3 797C514.75 797 544.3 767.45 544.3 731 544.3 694.55 514.75 665 478.3 665 441.85 665 412.3 694.55 412.3 731 412.3 767.45 441.85 797 478.3 797Z" fill="#3290ff" opacity="1" stroke-width="4" stroke="none"></path><path d="M496.3 749C513.2 732.1 518.8 710.3 508.8 700.3 507.3 698.8 505.5 697.6 503.6 696.8 501.9 696.1 500.1 695.7 498.3 695.5 496.8 695.3 495.3 696.1 494.7 697.4L486.7 712.9C485.8 714.7 486.5 716.8 488.2 717.7 488.3 717.8 488.4 717.8 488.5 717.8L492.9 719.6C494.7 720.3 495.5 722.3 494.8 724 494.7 724.2 494.6 724.4 494.5 724.5 488.8 733.6 481.1 741.3 472 747.1 470.4 748.1 468.3 747.6 467.3 746 467.2 745.8 467.1 745.6 467 745.5L465.2 741C464.5 739.2 462.4 738.3 460.6 739L460.3 739.1 444.8 747.1C443.5 747.7 442.7 749.1 442.9 750.6 443.1 752.5 443.5 754.3 444.2 756.1 445 758.1 446.2 759.8 447.7 761.3 457.6 771.5 479.4 765.9 496.3 749Z" fill="#ffffff" opacity="1" stroke-width="4" stroke="none"></path></g><g><path d="M916.48 893.92C909.95 857.34 913.06 819.11 914.71 781.2 916.89 729.6 916.17 678.52 884.36 632.32 884.36 632.32 871.3 632.32 856.18 632.32 856.18 632.21 856.18 632.21 856.18 632.21L819.3 624.03 769.05 632.42C769.05 632.42 686.27 705.15 616.44 887.49 600.69 928.73 587.53 963.12 576.55 991.51L617.27 1023.73 673.42 1031.09C691.76 978.56 693 953.18 706.06 927.07 716 907.28 772.05 825.54 806.86 773.01 807.59 812.28 809.87 857.55 814.94 905.52 818.47 938.98 826.96 978.15 833.07 1013.48L888.4 1027.26 934.09 1013.79C933.16 956.91 922.07 919.3 916.48 893.92Z" fill="#ffa0dc" opacity="1" stroke-width="4" stroke="none"></path><path d="M862.29 317.98C845.2 309.48 831.62 309.9 821.06 314.15 807.9 318.5 797.54 325.85 792.15 337.87 788.52 345.95 785.93 354.45 783.76 360.15 783.55 360.67 783.14 360.98 782.62 361.08 780.24 361.29 773.71 362.22 772.78 365.22 771.64 368.85 775.16 373.82 776.71 375.69 777.13 376.21 777.23 376.83 776.92 377.35 770.29 392.58 768.94 402.62 772.26 411.85 775.06 419.72 783.14 429.46 805.93 428.22L804.58 434.33 807.38 439.09 875.45 440.03 880.32 434.22 883.94 417.23C883.94 417.23 886.85 379.73 887.78 372.89 890.26 353.93 890.99 332.38 862.29 317.98Z" fill="#935757" opacity="1" stroke-width="4" stroke="none"></path><path d="M805.93 428.32L803.96 437.33C803.96 437.44 804.07 437.54 804.07 437.44L827.48 423.35C827.58 423.24 827.48 423.14 827.38 423.14 816.81 427.39 806.97 428.11 805.93 428.32 805.93 428.22 805.93 428.22 805.93 428.32Z" fill="#0d0d0d" opacity="0.3" stroke-width="4" stroke="none"></path><path d="M833.07 1105.17C830.59 1107.96 827.79 1110.55 824.99 1112.73 805.83 1127.86 792.36 1127.44 790.49 1156.35L910.36 1152.62C910.36 1152.62 923.52 1142.98 928.39 1105.58 930.15 1091.7 931.71 1074.91 932.85 1055.64 932.85 1055.64 932.85 1055.54 932.74 1055.54L883.63 1043.31 839.39 1055.54 839.29 1055.64C841.57 1078.75 840.64 1096.88 833.07 1105.17Z" fill="#935757" opacity="1" stroke-width="4" stroke="none"></path><path d="M933.99 1013.79L833.18 1013.48C833.07 1013.48 833.07 1013.58 833.07 1013.58 835.66 1028.4 838.05 1042.8 839.29 1055.44 839.29 1055.54 839.29 1055.54 839.39 1055.54H932.74C932.85 1055.54 932.85 1055.54 932.85 1055.44 932.95 1053.16 933.05 1050.98 933.16 1048.6 933.99 1036.37 934.3 1024.77 934.09 1013.89 934.09 1013.79 934.09 1013.79 933.99 1013.79Z" fill="#d7e2ef" opacity="1" stroke-width="4" stroke="none"></path><path d="M806.66 720.79L805.1 720.28C798.89 718.31 792.36 722.04 790.8 728.36L765.52 834.76C780.03 813.21 794.74 791.35 806.86 773.01 806.45 754.15 806.45 736.54 806.66 720.79Z" fill="#da72b3" opacity="0.3" stroke-width="4" stroke="none"></path><path d="M914.71 781.2C915.65 763.58 915.85 745.14 914.82 728.15 912.23 670.34 884.46 632.32 884.46 632.32L856.28 632.21 844.26 748.66 876.8 797.25C883.12 806.58 896.79 806.79 903.21 797.46L914.71 781.2Z" fill="#da72b3" opacity="0.3" stroke-width="4" stroke="none"></path><path d="M526.71 1098.74C522.67 1103.4 517.49 1107.55 512.17 1111.31 514.62 1122.19 474.8 1130.86 473.04 1156.97 473.04 1157.07 473.04 1157.07 473.14 1157.07L599.75 1154.27C600.47 1153.76 621.82 1139.56 640.67 1105.06 646.37 1094.6 652.27 1082.68 658.08 1069.84V1069.73L615.6 1035.23C615.6 1035.23 615.6 1035.23 615.5 1035.23L561.21 1030.16C561.21 1030.16 561.1 1030.16 561.1 1030.26 546.7 1066.21 536.13 1087.86 526.71 1098.74Z" fill="#935757" stroke-linejoin="round" opacity="1" stroke-width="4" stroke="none"></path><path d="M561.31 1030.05L658.08 1069.63C658.18 1069.63 658.18 1069.63 658.18 1069.53 662.22 1060.51 666.05 1050.98 669.78 1041.03 671.03 1037.51 672.27 1034.3 673.41 1031.09 673.41 1030.99 673.41 1030.99 673.31 1030.99L576.64 991.51C576.54 991.51 576.54 991.51 576.54 991.62 570.95 1005.91 565.97 1018.76 561.31 1029.95 561.21 1030.05 561.21 1030.05 561.31 1030.05Z" fill="#d7e2ef" opacity="1" stroke-width="4" stroke="none"></path><path d="M570.53 1145.78H525.88C525.77 1145.78 525.77 1145.78 525.77 1145.68 525.77 1133.76 519.14 1119.26 512.2 1111.28H512.1C491.69 1125.16 465.37 1134.59 463.71 1160.59 463.71 1160.7 463.71 1160.7 463.82 1160.7L604.82 1160.8H604.93C605.65 1159.87 622.13 1139.46 640.77 1105.27 640.77 1105.17 640.77 1105.17 640.67 1105.06 601.72 1099.36 574.57 1125.16 570.53 1145.78 570.63 1145.78 570.63 1145.78 570.53 1145.78Z" fill="#ffa0dc" stroke-linejoin="round" opacity="1" stroke-width="4" stroke="none"></path><path d="M942.51 331.83C966.92 315.95 975.86 286.39 962.48 265.82 949.08 245.24 918.44 241.44 894.03 257.32 869.62 273.2 860.69 302.76 874.07 323.34 887.46 343.91 918.1 347.71 942.51 331.83Z" fill="#0b0c0c" opacity="1" stroke-width="4" stroke="none"></path><path d="M806.86 773.01L806.66 720.79" stroke="#da72b3" stroke-width="4" stroke-linecap="round" stroke-linejoin="round" opacity="1" fill="none"></path><path d="M526.1 412.67C513.56 408.01 504.75 408.43 511.18 419.1 512.52 421.38 513.97 423.45 515.63 425.42 515.94 425.83 515.63 426.35 515.11 426.25 501.02 423.76 461.96 416.09 461.76 429.56 461.76 429.98 461.45 430.29 461.03 430.29 453.57 431.43 450.98 438.89 453.68 443.24 453.78 443.45 453.78 443.65 453.57 443.86 445.8 449.14 451.81 456.5 452.95 457.85 453.05 457.95 453.16 458.16 453.05 458.36 452.85 460.02 452.33 468.41 464.76 474.11 477.92 480.22 529.2 494.94 529.2 494.94 529.2 494.94 537.8 504.78 557.59 523.01H557.69L592.09 502.6 607.11 462.92V462.82C578.52 441.58 548.06 420.86 526.1 412.67Z" fill="#935757" opacity="1" stroke-width="4" stroke="none"></path><path d="M865.09 313.01C833.07 299.33 805.62 306.38 792.15 337.87 793.71 339.53 800.65 341.6 809.45 338.29 809.76 338.18 810.18 338.39 810.07 338.8 809.76 342.02 809.76 353.52 824.79 354.03 825.1 354.03 825.3 354.35 825.2 354.66 824.48 357.04 822.71 366.36 832.45 373.72 832.66 373.82 832.87 373.82 832.97 373.72 835.87 371.96 859.49 358.18 869.54 370.71 879.8 385.74 859.39 401.9 853.9 405.73 853.28 406.15 853.28 407.18 853.9 407.6 869.13 419.62 883.84 417.13 883.84 417.13 891.4 376.72 909.33 338.39 865.09 313.01Z" fill="#0b0c0c" opacity="1" stroke-width="4" stroke="none"></path><path d="M797.75 368.44C799.52 368.44 800.96 367 800.96 365.22 800.96 363.44 799.52 362.01 797.75 362.01 795.97 362.01 794.53 363.44 794.53 365.22 794.53 367 795.97 368.44 797.75 368.44Z" fill="#000000" opacity="1" stroke-width="4" stroke="none"></path><path d="M780.65 1160.7H917.41C917.41 1160.7 917.51 1160.7 917.51 1160.59 917.93 1159.45 923.52 1141.84 928.39 1105.68 928.39 1105.58 928.29 1105.58 928.29 1105.58 902.49 1110.66 885.5 1129.82 882.39 1145.78 882.39 1145.78 882.39 1145.88 882.29 1145.88H837.63C837.53 1145.88 837.53 1145.88 837.53 1145.78 837.53 1134.69 831.73 1121.12 825.2 1112.83H825.1C806.14 1127.65 782.72 1131.17 780.75 1160.59 780.55 1160.59 780.55 1160.7 780.65 1160.7Z" fill="#ffa0dc" opacity="1" stroke-width="4" stroke="none"></path><path d="M877.62 446.55C877.83 445.83 878.76 441.06 880.32 434.43 880.32 434.33 880.32 434.33 880.21 434.33L804.69 434.43C804.69 434.43 804.58 434.43 804.58 434.54L803.86 437.64 802.1 445.52 801.99 445.62C801.06 445.52 793.29 444.9 783.24 445.72H783.14C781.38 448.63 779.51 454.12 779.41 454.53 779.41 454.53 779.41 454.53 779.41 454.63L812.35 562.28C812.35 562.38 812.46 562.38 812.56 562.28L896.69 451.63V451.53C896.58 451.32 896.17 450.18 895.96 449.66 895.96 449.66 895.96 449.56 895.86 449.56 889.95 447.9 883.74 446.97 877.73 446.66 877.73 446.66 877.62 446.66 877.62 446.55Z" fill="#ffffff" opacity="1" stroke-width="4" stroke="none"></path><path d="M901.87 1013.89C901.87 1013.89 894.93 940.33 884.77 876.2 866.64 760.89 868.71 632.73 868.71 632.73" stroke="#da72b3" stroke-width="4" stroke-linecap="round" stroke-linejoin="round" opacity="1" fill="none"></path><path d="M859.18 763.06C865.71 759.54 867.06 746.8 859.6 747.01L851.41 755.4 859.18 763.06Z" fill="#935757" opacity="1" stroke-width="4" stroke="none"></path><path d="M951.18 693.65L885.29 628.9 863.33 607.35H863.22L838.67 632.32 806.45 665.05 794.33 680.91V681.01L884.57 778.81H884.67L958.75 703.91V703.8L951.18 693.65Z" fill="#d7e2ef" opacity="1" stroke-width="4" stroke="none"></path><path d="M806.45 665.16L791.74 680.08C787.18 684.74 787.18 692.3 791.84 696.86L878.76 782.33C879.49 783.06 880.73 783.06 881.46 782.33L903.11 760.27 806.45 665.16Z" fill="#f3f3f3" opacity="1" stroke-width="4" stroke="none"></path><path d="M942.48 480.22C930.88 464.99 914.4 454.32 896.07 449.56H895.96L816.6 546.12C816.5 546.22 816.5 546.12 816.39 546.12L783.34 445.62C783.34 445.62 783.24 445.62 783.24 445.52 770.5 446.66 752.88 450.18 736 459.19 708.75 473.8 662.44 503.54 660.68 504.68H660.57C659.74 504.05 649.38 495.25 634.15 483.33 626.28 477.12 617.16 470.17 607.42 462.92 607.32 462.92 607.32 462.92 607.32 462.92L557.9 523.01C557.9 523.12 557.9 523.12 557.9 523.12 627.01 588.91 651.97 601.44 711.55 572.74 722.94 567.25 735.69 560.21 750.29 551.82 750.4 551.82 750.4 551.82 750.4 551.92 751.23 555.44 768.43 629.83 769.05 632.32 769.05 632.32 769.05 632.32 769.15 632.42 770.91 632.42 807.28 632.42 838.77 632.32L863.33 607.35C863.43 607.35 863.43 607.35 863.43 607.35L885.39 628.9 902.08 570.98 921.97 606.73C922.07 607.04 922.07 607.35 921.76 607.45 918.44 609.83 896.27 626.31 871.2 645.78V645.89L880.01 688.78 910.57 704.42H910.67C943.31 688.26 981.85 663.5 991.8 632.83 1003.3 596.57 968.07 511.31 942.48 480.22Z" fill="#30a9ff" opacity="1" stroke-width="4" stroke="none"></path><path d="M863.22 607.45C863.33 607.45 863.33 607.45 863.33 607.45L885.29 629 901.97 571.09V570.98L889.95 550.88C889.95 550.78 889.85 550.78 889.75 550.88L819.4 632.32C819.3 632.42 819.4 632.52 819.5 632.52H838.67L863.22 607.45Z" fill="#395d77" opacity="0.3" stroke-width="4" stroke="none"></path><path d="M799.3 709.71C800.34 715.1 807.8 715.1 807.8 715.1 804.58 719.34 802.41 722.56 802.41 722.56 797.02 733.23 808.83 738.61 808.83 738.61 809.87 751.46 821.68 750.32 821.68 750.32 827.07 764.2 835.56 760.99 835.56 760.99 841.98 774.88 859.29 763.06 859.29 763.06L855.04 758.4C853.59 756.74 853.59 754.26 855.04 752.6 857.42 749.91 861.88 745.56 869.75 739.65 879.28 732.71 886.95 723.59 892.13 712.92 897.41 710.64 904.15 707.43 910.26 704.42 910.36 704.42 910.36 704.32 910.26 704.32L870.99 645.89C870.99 645.89 870.89 645.78 870.89 645.89 836.91 672.31 798.16 703.8 799.3 709.71Z" fill="#935757" opacity="1" stroke-width="4" stroke="none"></path><path d="M880.32 783.99L878.87 782.65C874.62 778.4 874.52 771.56 878.76 767.31L951.18 693.65 960.2 702.56 967.45 709.71C967.76 710.02 967.76 710.64 967.45 710.95L895.65 783.99C891.51 788.14 884.77 788.24 880.32 783.99Z" fill="#ffffff" opacity="1" stroke-width="4" stroke="none"></path><path d="M648.87 512.55L660.47 504.78C660.57 504.78 660.57 504.68 660.47 504.57 659.33 503.64 649.07 494.94 634.47 483.54 634.36 483.44 634.26 483.54 634.26 483.64L648.66 512.45C648.76 512.65 648.76 512.65 648.87 512.55Z" fill="#395d77" opacity="0.3" stroke-width="4" stroke="none"></path><path d="M785.42 385.74C786.76 387.19 792.46 389.47 796.09 385.63" stroke="#0d0d0d" stroke-width="4" stroke-linecap="round" stroke-linejoin="round" opacity="1" fill="none"></path><path d="M805.93 428.22C811.52 427.8 822.4 425.31 827.48 423.14" stroke="#0d0d0d" stroke-width="4" stroke-linecap="round" stroke-linejoin="round" opacity="1" fill="none"></path><path d="M843.44 388.33L855.14 383.04" stroke="#0d0d0d" stroke-width="4" stroke-linecap="round" stroke-linejoin="round" opacity="1" fill="none"></path><path d="M453.15 458.05C453.15 458.05 505.36 466.76 510.65 467.9 510.65 467.9 536.45 462.51 558.72 465.72" stroke="#0d0d0d" stroke-width="4" stroke-linecap="round" stroke-linejoin="round" opacity="1" fill="none"></path><path d="M453.47 443.55L515.01 452.98" stroke="#0d0d0d" stroke-width="4" stroke-linecap="round" stroke-linejoin="round" opacity="1" fill="none"></path><path d="M461.64 429.87L520.28 439.09" stroke="#0d0d0d" stroke-width="4" stroke-linecap="round" stroke-linejoin="round" opacity="1" fill="none"></path><path d="M901.97 570.98L889.95 550.78" stroke="#395d77" stroke-width="4" stroke-linecap="round" stroke-linejoin="round" opacity="1" fill="none"></path><path d="M807.8 715.1C812.66 709.92 817.64 706.29 817.64 706.29" stroke="#0d0d0d" stroke-width="4" stroke-linecap="round" stroke-linejoin="round" opacity="1" fill="none"></path><path d="M808.83 738.61C809.87 733.33 811.42 727.94 819.81 720.17" stroke="#0d0d0d" stroke-width="4" stroke-linecap="round" stroke-linejoin="round" opacity="1" fill="none"></path><path d="M821.68 750.32C822.2 742.03 823.65 738.51 830.69 731.26" stroke="#0d0d0d" stroke-width="4" stroke-linecap="round" stroke-linejoin="round" opacity="1" fill="none"></path><path d="M835.56 760.99C835.66 750.74 837.22 748.15 842.81 742.45" stroke="#0d0d0d" stroke-width="4" stroke-linecap="round" stroke-linejoin="round" opacity="1" fill="none"></path><path d="M648.87 512.55L660.57 504.78" stroke="#395d77" stroke-width="4" stroke-linecap="round" stroke-linejoin="round" opacity="1" fill="none"></path><path d="M711.86 572.64C724.7 566.73 748.95 552.54 750.29 551.82 750.29 551.82 750.4 551.71 750.29 551.71L744.6 527.88C744.6 527.78 744.49 527.78 744.39 527.88L711.75 572.54C711.75 572.64 711.86 572.74 711.86 572.64Z" fill="#395d77" opacity="0.3" stroke-width="4" stroke="none"></path><path d="M750.29 551.82L744.7 527.88" stroke="#395d77" stroke-width="4" stroke-linecap="round" stroke-linejoin="round" opacity="1" fill="none"></path></g><g><path d="M281.75 893.86L264.45 919.77 295.96 906.91 281.75 893.86Z" fill="#ffffff" opacity="1" stroke-width="4" stroke="none"></path><path d="M281.75 893.86L264.45 919.77 295.96 906.91 281.75 893.86Z" fill="#515151" opacity="0.2" stroke-width="4" stroke="none"></path><path d="M281.75 893.86L300.01 934.18 359.68 863.25C359.81 863.12 359.68 862.93 359.49 863L281.75 893.86Z" fill="#ffffff" opacity="1" stroke-width="4" stroke="none"></path><path d="M246.51 868.65L281.75 893.86 359.55 863C359.62 862.93 359.62 862.8 359.49 862.8L246.51 868.65Z" fill="#ffffff" opacity="1" stroke-width="4" stroke="none"></path><path d="M281.75 893.86L289.4 910.77" stroke="#515151" stroke-width="4" stroke-linecap="round" stroke-linejoin="round" opacity="1" fill="none"></path><path d="M359.49 863L281.75 893.86" stroke="#515151" stroke-width="4" stroke-linecap="round" stroke-linejoin="round" opacity="1" fill="none"></path></g></svg>